<svg width="72" height="40" viewBox="0 0 72 40" fill="none" xmlns="http://www.w3.org/2000/svg">
<path d="M13.5129 32.2898C11.1435 32.0178 8.75249 30.7105 7.24889 28.8646C5.98469 27.3126 5.29709 25.6628 5.09789 23.7019C4.98089 22.5541 5.08709 21.549 5.46509 20.237C5.79689 19.085 6.35969 17.9869 7.13249 16.9843C7.26929 16.8077 8.51909 15.5834 8.73269 15.4175C10.9095 13.7274 13.9275 13.0477 16.6821 13.6272C17.7759 13.8578 18.8829 14.3075 19.8303 14.9061C20.0091 15.0187 20.1837 15.1111 20.2179 15.1111C20.2575 15.1111 20.2809 14.9013 20.2809 14.5481V13.9852H22.2909H24.3015L24.2859 22.9481L24.2709 31.9111L22.2759 31.9265L20.2809 31.9425V31.2895C20.2809 30.9173 20.2563 30.637 20.2239 30.637C20.1927 30.637 20.0499 30.7152 19.9071 30.8101C19.1577 31.3096 17.9091 31.8589 17.0691 32.0575C15.9165 32.3306 14.6115 32.416 13.5129 32.2898ZM15.9609 28.2732C17.0991 27.9864 17.7603 27.6136 18.6015 26.7852C19.1187 26.2761 19.2921 26.0581 19.5537 25.5852C19.7295 25.2669 19.9377 24.8089 20.0157 24.5665C20.8683 21.9135 19.6035 19.0678 17.0409 17.8744C16.3677 17.5609 15.8961 17.4323 15.1893 17.3701C14.0991 17.2741 13.1259 17.4601 12.1449 17.952C9.14849 19.4542 8.13869 23.1846 9.98249 25.9384C10.5435 26.7757 11.5575 27.6178 12.4521 27.9887C12.7581 28.1149 13.4505 28.2981 14.0409 28.4083C14.3493 28.4658 15.5247 28.3834 15.9609 28.2732ZM40.7787 32.2904C38.4693 31.9573 36.2955 30.7514 34.8651 29.0098C34.3779 28.416 34.2015 28.1452 33.8217 27.4074C33.1161 26.0385 32.8179 24.7389 32.8479 23.1704C32.8755 21.7505 33.1359 20.6904 33.7869 19.3464C34.2837 18.3218 34.0803 18.6021 40.3941 10.2667L42.4251 7.58517H44.7933C46.0953 7.58517 47.1609 7.59939 47.1609 7.61717C47.1609 7.65569 46.7847 8.14161 44.8209 10.64C43.9791 11.7102 43.0881 12.8444 42.8409 13.1603C42.5937 13.4761 42.3009 13.8441 42.1911 13.9787C42.0507 14.1493 42.0147 14.2299 42.0711 14.2477C42.1149 14.2613 42.5427 14.2868 43.0209 14.3034C47.2095 14.4504 50.7495 17.6385 51.4527 21.8963C51.5559 22.5232 51.5685 23.9449 51.4761 24.5517C51.0453 27.3736 49.4277 29.7244 46.9449 31.1366C45.9963 31.6758 44.6361 32.1292 43.4709 32.2939C42.9717 32.3644 41.2773 32.3621 40.7787 32.2904ZM42.7719 28.7384C43.6275 28.6323 44.4525 28.3318 45.1185 27.8838C45.5421 27.5982 45.6153 27.5401 45.8703 27.2877C47.2755 25.8975 47.8065 23.9573 47.3349 21.9366C47.2719 21.6652 47.1663 21.3268 47.1003 21.184C47.0349 21.0418 46.9809 20.9007 46.9809 20.8705C46.9809 20.8409 46.7871 20.5298 46.5507 20.1795C45.3663 18.4243 43.3395 17.5816 41.1903 17.9514C38.5983 18.397 36.7725 20.8124 36.9231 23.5958C36.9765 24.5795 37.2123 25.3896 37.6935 26.2477C38.0709 26.9191 38.8095 27.6681 39.4419 28.0201C39.5787 28.096 39.7455 28.1932 39.8127 28.2352C40.0305 28.3721 41.0007 28.6744 41.4009 28.7306C41.9487 28.8077 42.2019 28.8089 42.7719 28.7384ZM26.9409 21.5704V11.2H25.6575C24.6837 11.2 24.3675 11.1822 24.3489 11.1259C24.3351 11.085 24.3255 10.2785 24.3279 9.33332L24.3321 7.6148L27.6465 7.59939L30.9609 7.58398V19.7624V31.9407H28.9509H26.9409V21.5704ZM53.0811 31.9016C53.0589 31.8797 53.0409 31.0696 53.0409 30.1019V28.3419L53.7333 27.5194C55.3911 25.5502 56.1009 24.7046 57.3621 23.2C58.0995 22.32 58.9497 21.3066 59.2521 20.9481C59.5539 20.5896 60.0687 19.9751 60.3957 19.5822C60.7233 19.1893 61.2039 18.6163 61.4637 18.3081L61.9365 17.7481L57.5037 17.7185L53.0709 17.6889V15.9111V14.1333L59.9559 14.1185L66.8409 14.1031V15.9129V17.7221L64.6101 20.3721C63.3825 21.8299 61.5825 23.9692 60.6099 25.1259C59.6367 26.2826 58.6425 27.4607 58.4007 27.7434C58.1589 28.0255 57.9609 28.2726 57.9609 28.2915C57.9609 28.3105 59.9727 28.3259 62.4315 28.3259H66.9027L66.8865 30.1185L66.8709 31.9111L59.9961 31.9259C56.2149 31.9342 53.1033 31.9235 53.0811 31.9016Z" fill="black"/>
</svg>
