<svg width="180" height="18" viewBox="0 0 180 18" fill="none" xmlns="http://www.w3.org/2000/svg">
<path d="M18.0001 0H0V4.50002H18.0001V0Z" fill="#F8130E"/>
<path d="M18.0001 4.5H0V9.00002H18.0001V4.5Z" fill="#9AEFDF"/>
<path d="M18.0001 9.00098H0V13.501H18.0001V9.00098Z" fill="#44C1C1"/>
<path d="M18.0001 13.5H0V18H18.0001V13.5Z" fill="#072735"/>
<path d="M34.0797 5.31055V8.31057H38.1597V9.66057H34.0797V14.0106H32.4297V3.93055H39.2697V5.28055L34.0797 5.31055ZM48.3898 3.96055C49.3498 3.96055 49.7398 4.11055 50.1598 4.38055C50.6998 4.92055 51.1198 5.61055 51.1198 9.00057C51.1198 12.3906 50.6998 13.0806 50.1598 13.6206C49.7398 13.8906 49.4698 14.0406 48.3898 14.0406H45.3897C44.4297 14.0406 44.0397 13.8906 43.6197 13.6206C43.0797 13.0806 42.6597 12.3906 42.6597 9.00057C42.6597 5.61055 43.0797 4.92055 43.6197 4.38055C44.0397 4.11055 44.3097 3.96055 45.3897 3.96055H48.3898ZM44.6997 12.5406C44.8497 12.6906 44.9697 12.6906 45.5098 12.6906H48.2398C48.7798 12.6906 48.9298 12.6906 49.0498 12.5406C49.1998 12.3906 49.4698 12.0006 49.4698 9.00057C49.4698 6.15055 49.1998 5.58056 49.0498 5.46055C48.8998 5.31055 48.7798 5.31055 48.2398 5.31055H45.5098C44.9697 5.31055 44.8197 5.31055 44.6997 5.46055C44.5797 5.61056 44.2797 6.00055 44.2797 9.00057C44.4297 11.8506 44.5797 12.4206 44.6997 12.5406ZM63.6598 9.81058C63.6598 12.3906 63.3898 12.8106 62.8498 13.3506C62.3098 13.7706 61.6198 13.8906 60.2698 13.8906H58.7698C57.4198 13.8906 56.7298 13.7406 56.1898 13.3506C55.6498 12.8106 55.3798 12.2706 55.3798 9.81058V3.96055H57.0298V10.2306C57.0298 12.0006 57.1798 12.2706 57.4498 12.4206C57.5998 12.5706 57.8698 12.6906 59.0998 12.6906H60.0598C61.1398 12.6906 61.4098 12.6906 61.7098 12.4206C61.9798 12.1506 61.9798 12.1506 61.9798 10.2306V3.96055H63.6298V9.81058H63.6598ZM76.7399 14.0406H74.9699C74.5499 14.0406 74.4299 13.8906 74.1599 13.6206L70.0799 6.12055H69.8099V14.0106H68.1599V3.93055H70.0799C70.4999 3.93055 70.6199 4.08054 70.8899 4.35055L74.8499 11.4306H75.1199V3.81055H76.7699V14.0406H76.7399ZM86.0099 3.96055C87.2399 3.96055 88.05 4.11054 88.59 4.65055C89.28 5.19055 89.67 6.57056 89.67 9.00057C89.67 11.4606 89.4 12.6906 88.59 13.3506C88.05 13.8906 87.3599 14.0406 86.0099 14.0406H81.3899V3.96055H86.0099ZM87.2099 5.58055C86.9399 5.31055 86.5199 5.31055 85.9799 5.31055H83.1299V12.6606H85.9799C86.6699 12.6606 86.9399 12.6606 87.2099 12.3906C87.63 11.9706 87.75 11.3106 87.75 9.12057C87.9 6.69056 87.63 6.00056 87.2099 5.58055ZM100.98 14.0406H93.75V3.96055H100.98V5.31055H95.4V8.04056H100.02V9.39057H95.4V12.5106H100.98V14.0406ZM110.94 10.0806C110.79 9.93057 110.4 9.93057 109.86 9.93057H106.86V14.1606H105.21V4.08055H110.94C111.63 4.08055 112.17 4.23055 112.44 4.50055C112.86 4.92055 113.13 5.46055 113.13 6.96056C113.13 8.73057 112.59 9.27057 111.36 9.42057C112.44 9.57057 112.86 9.84057 113.01 11.3406C113.01 12.6906 113.16 13.6506 113.16 14.1906H111.51C111.36 13.5006 111.36 12.5406 111.36 11.4606C111.21 10.5006 111.06 10.2306 110.94 10.0806ZM110.4 8.58057C110.82 8.58057 110.94 8.43057 111.09 8.43057C111.24 8.28057 111.36 8.01057 111.36 6.93056C111.36 5.85055 111.21 5.58055 111.09 5.43055C110.97 5.28055 110.82 5.28055 110.4 5.28055H106.86V8.55057L110.4 8.58057ZM124.56 13.6206C124.29 13.8906 123.75 14.0406 122.91 14.0406H119.37C118.56 14.0406 118.02 13.8906 117.72 13.6206C117.3 13.2006 117.18 12.6606 117.18 10.8906H118.83C118.83 12.1206 118.98 12.3906 118.98 12.5406C119.13 12.6906 119.25 12.6906 119.67 12.6906H122.67C123.09 12.6906 123.21 12.6906 123.36 12.5406C123.51 12.3906 123.51 12.0006 123.51 11.1906C123.51 10.5006 123.51 10.2306 123.36 10.1106C123.21 9.96058 123.09 9.96058 122.67 9.96058L119.4 9.69057C118.59 9.54057 118.17 9.42057 117.9 9.15057C117.48 8.73057 117.36 8.34057 117.36 6.96056C117.36 5.61056 117.51 5.04055 118.05 4.50055C118.32 4.23055 118.86 4.08055 119.7 4.08055H122.97C123.78 4.08055 124.32 4.23055 124.62 4.50055C125.04 4.92055 125.16 5.31055 125.16 7.23056H123.51C123.51 6.00056 123.36 5.73055 123.36 5.73055C123.21 5.58055 123.09 5.58055 122.67 5.58055H119.94C119.52 5.58055 119.4 5.58055 119.25 5.73055C119.1 5.88055 119.1 6.27056 119.1 7.08056C119.1 7.77056 119.1 8.04057 119.25 8.16057C119.4 8.31057 119.52 8.31057 119.94 8.31057L123.21 8.58057C123.9 8.58057 124.44 8.73056 124.71 9.12057C125.13 9.54057 125.25 9.93057 125.25 11.4306C125.25 12.5406 125.1 13.0806 124.56 13.6206ZM136.68 5.31055V8.31057H140.76V9.66057H136.68V14.0106H135.03V3.93055H141.84V5.28055L136.68 5.31055ZM153.99 9.81058C153.99 12.3906 153.72 12.8106 153.18 13.3506C152.64 13.7706 151.95 13.8906 150.6 13.8906H149.1C147.75 13.8906 147.06 13.7406 146.52 13.3506C145.98 12.8106 145.71 12.2706 145.71 9.81058V3.96055H147.36V10.2306C147.36 12.0006 147.51 12.2706 147.78 12.4206C147.93 12.5706 148.2 12.6906 149.43 12.6906H150.39C151.47 12.6906 151.74 12.6906 152.04 12.4206C152.31 12.1506 152.31 12.1506 152.31 10.2306V3.96055H153.96V9.81058H153.99ZM167.07 14.0406H165.3C164.88 14.0406 164.76 13.8906 164.49 13.6206L160.41 6.12055H160.14V14.0106H158.49V3.93055H160.41C160.83 3.93055 160.95 4.08054 161.22 4.35055L165.18 11.4306H165.45V3.81055H167.1V14.0406H167.07ZM176.34 3.96055C177.57 3.96055 178.38 4.11054 178.92 4.65055C179.61 5.19055 180 6.57056 180 9.00057C180 11.4606 179.73 12.6906 178.92 13.3506C178.38 13.8906 177.69 14.0406 176.34 14.0406H171.72V3.96055H176.34ZM177.57 5.58055C177.3 5.31055 176.88 5.31055 176.34 5.31055H173.49V12.6606H176.34C177.03 12.6606 177.3 12.6606 177.57 12.3906C177.99 11.9706 178.11 11.3106 178.11 9.12057C178.11 6.69056 177.96 6.00056 177.57 5.58055Z" fill="#121212"/>
</svg>
