<svg width="164" height="23" viewBox="0 0 164 23" fill="none" xmlns="http://www.w3.org/2000/svg">
<path d="M159.435 7.13508H156.456V5.65908H164V7.13508H161.021V14.8157H159.381V7.13508H159.435ZM147.846 13.4764L148.885 12.3011C149.814 13.0664 150.771 13.4764 151.973 13.4764C153.039 13.4764 153.832 13.0117 153.832 12.3011C153.832 11.6451 153.367 11.2624 151.536 10.8524C149.431 10.3877 148.256 9.81374 148.256 8.14641V8.09175C148.256 6.50642 149.65 5.41308 151.591 5.41308C153.039 5.41308 154.16 5.82308 155.171 6.58842L154.242 7.81842C153.367 7.18975 152.493 6.88908 151.563 6.88908C150.525 6.88908 149.869 7.35375 149.869 7.95508V8.00974C149.869 8.72041 150.443 9.04842 152.329 9.45842C154.433 9.92308 155.445 10.6337 155.445 12.1371V12.1917C155.445 13.9411 153.996 14.9524 151.946 14.9524C150.47 14.9251 149.049 14.4604 147.846 13.4764ZM142.161 11.1804L138.635 5.60441H140.575L142.981 9.64974L145.441 5.60441H147.299L143.773 11.1531V14.8431H142.133V11.1804H142.161ZM133.305 5.57708H134.945V13.3124H139.81V14.7884H133.305V5.57708ZM128.631 11.1257L127.045 7.43574L125.46 11.1257H128.631ZM126.28 5.54974H127.811L131.911 14.8157H130.161L129.232 12.6017H124.886L123.902 14.8157H122.262L126.28 5.54974ZM118.381 7.13508H115.456V5.65908H123V7.13508H120.075V14.8157H118.381V7.13508ZM112.996 11.1257L111.411 7.43574L109.825 11.1257H112.996ZM110.645 5.54974H112.176L116.276 14.8157H114.581L113.652 12.6017H109.306L108.322 14.8157H106.6L110.645 5.54974ZM97.3887 10.2511C97.3887 7.57241 99.3293 5.44041 102.145 5.44041C103.839 5.44041 104.905 6.06908 105.78 6.88908L104.741 8.06441C103.976 7.40841 103.211 6.94375 102.117 6.94375C100.368 6.94375 99.0287 8.39241 99.0287 10.1691V10.2237C99.0287 12.0277 100.313 13.5037 102.117 13.5037C103.238 13.5037 103.976 13.0391 104.796 12.3284L105.835 13.3944C104.851 14.3784 103.785 15.0344 102.09 15.0344C99.384 14.9797 97.3887 12.8751 97.3887 10.2511ZM58.6847 5.57708H60.3247V13.3124H65.19V14.7884H58.6847V5.57708ZM54.0107 11.1257L52.4253 7.43574L50.84 11.1257H54.0107ZM51.66 5.49508H53.1907L57.2907 14.7611H55.596L54.6667 12.5471H50.2113L49.2273 14.7611H47.5873L51.66 5.49508ZM43.05 10.0871C44.2253 10.0871 44.936 9.45841 44.936 8.55641C44.936 7.57241 44.2253 7.02574 43.05 7.02574H40.6993V10.0871H43.05ZM39.0593 5.57708H43.214C44.3893 5.57708 45.3187 5.93241 45.8927 6.50641C46.3573 7.02574 46.658 7.68175 46.658 8.50175V8.55641C46.658 10.0324 45.7287 10.9617 44.444 11.3717L46.9587 14.8704H45.018L42.722 11.6451H40.672V14.8704H39.032V5.60441H39.0593V5.57708ZM29.9847 5.57708H36.9V7.02574H31.6247V9.43108H36.2987V10.8797H31.6247V13.3397H36.9547V14.7884H29.9847V5.57708ZM19.844 5.57708H21.32L26.2947 11.9457V5.57708H27.9347V14.7611H26.5407L21.402 8.20108V14.7611H19.8167V5.57708H19.844ZM10.824 5.57708H17.6847V7.02574H12.4093V9.43108H17.0833V10.8797H12.4093V13.3397H17.7393V14.7884H10.824V5.57708ZM0 10.1964C0 7.57241 1.99533 5.38574 4.756 5.38574C6.396 5.38574 7.38 5.85041 8.33667 6.67041L7.298 7.90041C6.58733 7.27175 5.84933 6.91641 4.674 6.91641C2.97933 6.91641 1.64 8.39242 1.64 10.1417V10.1964C1.64 12.0824 2.92467 13.4764 4.756 13.4764C5.63067 13.4764 6.396 13.2304 7.02467 12.7657V11.0164H4.51V9.62241H8.61V13.5311C7.68067 14.2964 6.34133 14.9797 4.756 14.9797C1.886 14.9251 0 12.8751 0 10.1964Z" fill="black"/>
<path d="M81.3982 0C75.4396 0 70.6289 4.97467 70.6289 11.07C70.6289 17.1653 75.4396 22.14 81.3982 22.14C87.3569 22.14 92.1676 17.1653 92.1676 11.07C92.1676 10.7147 92.1676 10.3593 92.1129 10.004H81.3982C80.8242 10.004 80.3596 10.4687 80.3596 11.07C80.3596 11.6713 80.8242 12.136 81.3982 12.136H90.0629L90.0082 12.3547C89.4069 16.7007 85.7169 20.0353 81.3982 20.0353C76.5876 20.0353 72.6789 16.0447 72.6789 11.1247C72.6789 6.20466 76.5876 2.214 81.3982 2.214C84.6782 2.214 87.7669 4.15467 89.1882 7.24333H91.4569C89.8989 2.87 85.9082 0 81.3982 0ZM81.5349 4.756C78.1456 4.756 75.4396 7.43466 75.4396 10.742C75.4396 14.0493 78.2002 16.728 81.5349 16.728C83.3389 16.728 85.0336 15.9627 86.2089 14.6233H81.5349C79.3209 14.6233 77.5442 12.874 77.5442 10.7147C77.5442 8.55533 79.3482 6.806 81.4802 6.806H86.1542C85.0336 5.54866 83.3389 4.756 81.5349 4.756Z" fill="#6D2077"/>
</svg>
