<svg width="115" height="30" viewBox="0 0 115 30" fill="none" xmlns="http://www.w3.org/2000/svg">
<path d="M16.4767 0H0V3.27399H16.4767V0ZM32.989 6.58357H9.89314V9.85756H32.989V6.58357ZM36.2986 13.1671H9.92873V16.4411H36.2986V13.1671ZM32.989 19.7507H9.89314V23.0247H32.989V19.7507ZM26.3699 26.3699H9.89314V29.6439H26.3699V26.3699Z" fill="#E42313"/>
<path d="M47.7005 11.9369V0.849759H45.9785V0.107422H50.3661V0.849759H48.6441V11.9369H50.3661V12.6792H45.9785V11.9369H47.7005ZM51.0737 12.6792V11.9369H52.4655V4.36986H51.0737V3.62753H53.3855V5.04036H53.4091C53.8808 3.93883 54.7536 3.36412 56.0274 3.36412C56.971 3.36412 57.6315 3.62753 58.0561 4.17829C58.4807 4.72906 58.693 5.56718 58.693 6.7166V11.9369H59.9668V12.6792H56.2869V11.9369H57.773V6.7166C57.773 4.96852 57.0889 4.10646 55.7444 4.10646C55.0367 4.10646 54.4706 4.41776 54.046 5.01641C53.6214 5.63902 53.4091 6.45319 53.4091 7.50683V11.9369H54.8008V12.6792H51.0737ZM67.4681 5.16009V0.873706H65.982V0.107422H68.4117V11.9369H69.6147V12.6792H67.4917V11.1227H67.4445C67.0907 11.7693 66.6897 12.2482 66.2415 12.5116C65.7933 12.775 65.2271 12.9187 64.5195 12.9187C64.1185 12.9187 63.7174 12.8469 63.3636 12.7032C62.9862 12.5595 62.6088 12.32 62.2313 11.9848C61.8539 11.6495 61.5473 11.1706 61.335 10.5001C61.0991 9.82962 61.0047 9.06334 61.0047 8.12943C61.0047 6.69265 61.3114 5.54323 61.9483 4.68117C62.5616 3.79515 63.4344 3.36412 64.5431 3.36412C65.9112 3.36412 66.8784 3.96278 67.4681 5.13614V5.16009ZM62.6795 5.25588C62.1842 6.02216 61.9247 6.98001 61.9247 8.15338C61.9247 9.32675 62.1842 10.2846 62.6795 11.0509C63.1749 11.8172 63.8826 12.2003 64.8025 12.2003C65.2979 12.2003 65.7225 12.0806 66.0999 11.8411C66.4774 11.6016 66.7604 11.2903 66.9727 10.8833C67.185 10.4762 67.3266 10.0212 67.4209 9.54226C67.5153 9.06334 67.5625 8.56046 67.5625 8.0097C67.5625 7.29131 67.4681 6.66871 67.303 6.14189C67.1379 5.61507 66.902 5.20798 66.6189 4.92063C66.3358 4.65722 66.0528 4.4417 65.7461 4.32197C65.4394 4.20224 65.1328 4.1304 64.8025 4.1304C63.8826 4.10645 63.1749 4.48959 62.6795 5.25588ZM78.036 8.321H71.549C71.5726 9.51831 71.8321 10.4522 72.3274 11.1467C72.8228 11.8411 73.5305 12.1764 74.4269 12.1764C75.913 12.1764 76.7858 11.434 77.0452 9.9733H77.8708C77.7057 10.9551 77.3283 11.6735 76.7386 12.1764C76.1489 12.6792 75.3704 12.9187 74.4504 12.9187C73.2002 12.9187 72.2331 12.4877 71.5962 11.6256C70.9593 10.7635 70.629 9.6141 70.629 8.15338C70.629 6.69266 70.9593 5.54323 71.5962 4.68117C72.2331 3.8191 73.2002 3.38807 74.4504 3.38807C75.2761 3.38807 75.9837 3.62753 76.5499 4.10646C77.116 4.58538 77.517 5.18404 77.7293 5.90243C77.918 6.62082 78.036 7.43499 78.036 8.321ZM71.5254 7.57867H77.0924C77.0688 6.47714 76.8093 5.61507 76.3376 5.01641C75.8422 4.41776 75.1817 4.10646 74.3089 4.10646C73.5305 4.10646 72.9172 4.41776 72.4218 5.06431C71.9264 5.71086 71.6198 6.54898 71.5254 7.57867ZM78.8616 12.6792V11.9369H79.64L82.4943 8.0097L79.8759 4.36986H79.1211V3.62753H82.164V4.36986H80.9138L83.084 7.38709L85.2778 4.36986H84.1691V3.62753H87.2121V4.36986H86.3157L83.6266 8.0097L86.4808 11.9369H87.2593V12.6792H84.2163V11.9369H85.4429L83.0604 8.63231L80.6779 11.9369H81.9046V12.6792H78.8616Z" fill="#181818"/>
<path d="M45.9785 17.928V17.1885H50.1136V17.928H48.1937L52.0088 28.6637H52.0334L55.8485 17.928H53.9286V17.1885H58.0883V17.928H56.9561L52.6241 29.7135H51.4427L47.1107 17.928H45.9785ZM65.4723 25.3715H58.7036C58.7283 26.5643 58.999 27.4947 59.5159 28.1866C60.0328 28.8785 60.7712 29.2125 61.7065 29.2125C63.2571 29.2125 64.1678 28.4729 64.4386 27.0176H65.3C65.1277 27.9957 64.7339 28.7115 64.1186 29.2125C63.5033 29.7135 62.691 29.952 61.7311 29.952C60.4266 29.952 59.4174 29.5226 58.7529 28.6637C58.0883 27.8049 57.7437 26.6597 57.7437 25.2045C57.7437 23.7492 58.0883 22.604 58.7529 21.7452C59.4174 20.8863 60.4266 20.4569 61.7311 20.4569C62.5926 20.4569 63.331 20.6955 63.9217 21.1726C64.5124 21.6498 64.9308 22.2462 65.1523 22.9619C65.3493 23.6776 65.4723 24.4887 65.4723 25.3715ZM58.7036 24.6319H64.5124C64.4878 23.5345 64.217 22.6756 63.7248 22.0792C63.2079 21.4828 62.5187 21.1726 61.608 21.1726C60.7958 21.1726 60.1558 21.4828 59.6389 22.1269C59.0975 22.771 58.8021 23.606 58.7036 24.6319ZM66.4076 29.7135V28.9739H67.8598V21.435H66.4076V20.6955H68.8197V22.103H68.8444C69.3366 21.0056 70.2473 20.433 71.5764 20.433C72.561 20.433 73.2502 20.6955 73.6932 21.2442C74.1362 21.7929 74.3578 22.6279 74.3578 23.773V28.9739H75.6869V29.7135H71.8226V28.9739H73.3732V23.773C73.3732 22.0315 72.6594 21.1726 71.2565 21.1726C70.5181 21.1726 69.9273 21.4828 69.4843 22.0792C69.0413 22.6995 68.8197 23.5106 68.8197 24.5603V28.9739H70.2719V29.7135H66.4076ZM77.8775 20.6955V18.763L78.862 18.4052V20.6716H81.3726V21.4112H78.862V27.7095C78.862 28.2343 78.9605 28.5922 79.1328 28.8307C79.305 29.0693 79.5266 29.1886 79.7973 29.1886C80.5357 29.1886 80.9049 28.616 80.9049 27.447V27.2562H81.6679V27.5902C81.6679 28.282 81.4956 28.8546 81.151 29.284C80.8065 29.7135 80.3142 29.9282 79.6989 29.9282C78.4928 29.9282 77.9021 29.2602 77.9021 27.9242V21.4112H76.253V20.6716H77.8775V20.6955ZM82.4556 21.435V20.6955H84.7692V26.612C84.7692 28.3536 85.483 29.2125 86.886 29.2125C87.5998 29.2125 88.1905 28.9262 88.6335 28.3297C89.0766 27.7333 89.3227 26.946 89.3227 25.944V21.435H87.8705V20.6955H90.2826V28.9739H91.7348V29.7135H89.3227V28.2343H89.2981C89.0519 28.783 88.7074 29.2125 88.2151 29.4987C87.7474 29.785 87.1813 29.952 86.566 29.952C85.5815 29.952 84.8923 29.6896 84.4492 29.1409C84.0062 28.5922 83.7847 27.7572 83.7847 26.612V21.4112H82.4556V21.435ZM92.4732 29.7135V28.9739H93.9254V21.435H92.4732V20.6955H94.8853V22.2939H94.9099C95.0822 21.6975 95.4022 21.2442 95.8452 20.9102C96.2883 20.6 96.7806 20.433 97.3467 20.433C97.5682 20.433 97.7405 20.4569 97.8635 20.4808V21.3158C97.7897 21.2919 97.642 21.268 97.4205 21.268C96.5836 21.268 95.9683 21.5782 95.5253 22.1746C95.0822 22.771 94.8853 23.5583 94.8853 24.5603V28.9739H96.6575V29.7135H92.4732ZM106.552 25.3715H99.7834C99.808 26.5643 100.079 27.4947 100.596 28.1866C101.113 28.8785 101.851 29.2125 102.786 29.2125C104.337 29.2125 105.248 28.4729 105.518 27.0176H106.38C106.207 27.9957 105.814 28.7115 105.198 29.2125C104.583 29.7135 103.771 29.952 102.811 29.952C101.506 29.952 100.497 29.5226 99.8326 28.6637C99.1681 27.8049 98.8235 26.6597 98.8235 25.2045C98.8235 23.7492 99.1681 22.604 99.8326 21.7452C100.497 20.8863 101.506 20.4569 102.811 20.4569C103.672 20.4569 104.411 20.6955 105.001 21.1726C105.592 21.6498 106.011 22.2462 106.232 22.9619C106.429 23.6776 106.552 24.4887 106.552 25.3715ZM99.7834 24.6319H105.568C105.543 23.5345 105.272 22.6756 104.78 22.0792C104.263 21.4828 103.574 21.1726 102.663 21.1726C101.851 21.1726 101.211 21.4828 100.694 22.1269C100.177 22.771 99.8818 23.606 99.7834 24.6319ZM107.881 29.7135V26.5405H108.644C108.669 27.4232 108.915 28.0673 109.383 28.5445C109.826 28.9977 110.416 29.2363 111.13 29.2363C111.819 29.2363 112.385 29.0693 112.779 28.7115C113.198 28.3775 113.395 27.8765 113.395 27.28C113.395 26.7552 113.247 26.3496 112.952 26.1349C112.656 25.8963 112.139 25.7293 111.376 25.61L110.195 25.443C108.693 25.1806 107.93 24.4649 107.93 23.2959C107.93 22.4132 108.226 21.7452 108.816 21.2442C109.407 20.7432 110.096 20.4808 110.933 20.4808C112.164 20.4808 112.976 20.9102 113.395 21.7929H113.419V20.7193H114.182V23.8207H113.419V23.3198C113.419 22.6518 113.198 22.1269 112.755 21.769C112.312 21.3873 111.745 21.2203 111.056 21.2203C110.392 21.2203 109.875 21.4112 109.481 21.769C109.087 22.1269 108.89 22.604 108.89 23.1766C108.89 23.9878 109.432 24.4649 110.539 24.6319L111.893 24.8466C112.755 24.9659 113.37 25.2283 113.739 25.61C114.133 25.9917 114.305 26.5405 114.305 27.2085C114.305 28.115 114.035 28.8069 113.468 29.284C112.902 29.7612 112.115 29.9997 111.106 29.9997C109.85 29.9997 109.013 29.5226 108.595 28.5445V29.7612H107.881V29.7135Z" fill="#181818"/>
</svg>
