<svg width="136" height="28" viewBox="0 0 136 28" fill="none" xmlns="http://www.w3.org/2000/svg">
<g clip-path="url(#clip0_376_25)">
<path d="M28.1379 0H0V28H28.1379V0Z" fill="#F26625"/>
<path d="M13.1311 15.8668L8.25391 6.81348H10.5049L13.3187 12.5068C13.3187 12.6001 13.4125 12.6935 13.5063 12.7868C13.6001 12.8801 13.6001 12.9735 13.6939 13.1601L13.7877 13.2535V13.3468C13.8815 13.5335 13.8815 13.6268 13.9753 13.8135C14.0691 13.9068 14.0691 14.0935 14.1629 14.1868C14.2567 13.9068 14.4443 13.7201 14.538 13.3468C14.6318 13.0668 14.8194 12.7868 15.007 12.5068L17.8208 6.81348H19.8843L15.007 15.9601V21.7468H13.1311V15.8668Z" fill="white"/>
<path d="M40.987 5.41406C42.3939 5.41406 43.6133 5.7874 44.5512 6.53406L43.6133 7.65406C42.7691 7.09406 41.925 6.72073 40.8933 6.72073C39.2988 6.72073 38.0795 7.56073 37.4229 9.1474C37.0477 10.0807 36.8602 11.2941 36.8602 12.8807C36.8602 14.0941 37.0477 15.1207 37.3291 15.8674C38.0795 17.6407 39.2988 18.4807 41.1746 18.4807C42.2064 18.4807 43.1443 18.2007 43.9884 17.5474L44.9264 18.7607C43.707 19.5074 42.3939 19.8807 40.987 19.8807C39.2988 19.8807 37.8919 19.2274 36.7664 17.8274C35.6408 16.5207 35.1719 14.7474 35.1719 12.6007C35.1719 10.4541 35.7346 8.77406 36.8602 7.37406C37.8919 6.16073 39.2988 5.41406 40.987 5.41406Z" fill="#F26625"/>
<path d="M46.334 14.6536C46.334 12.9736 46.7092 11.6669 47.5533 10.7336C48.3974 9.80023 49.4292 9.24023 50.7423 9.24023C52.2429 9.24023 53.4623 9.80024 54.3064 11.0136C54.963 11.9469 55.2443 13.2536 55.2443 14.8402C55.2443 16.7069 54.6816 18.2002 53.6498 19.1336C52.8995 19.7869 51.9616 20.1602 50.8361 20.1602C49.4292 20.1602 48.3974 19.6936 47.5533 18.6669C46.7092 17.7336 46.334 16.3336 46.334 14.6536ZM52.8995 11.9469C52.4305 11.1069 51.774 10.6402 50.7423 10.6402C49.7105 10.6402 49.054 11.0136 48.585 11.7602C48.2098 12.3202 48.1161 13.2536 48.1161 14.4669C48.1161 16.0536 48.3036 17.1736 48.7726 17.8269C49.2416 18.4802 49.8981 18.8536 50.8361 18.8536C51.9616 18.8536 52.7119 18.2936 53.0871 17.2669C53.2747 16.7069 53.3685 15.9602 53.3685 15.0269C53.4623 13.6269 53.2747 12.6002 52.8995 11.9469Z" fill="#F26625"/>
<path d="M58.2443 12.1336C58.2443 11.1069 58.1505 10.2669 57.8691 9.61357L59.4636 9.24023C59.745 9.7069 59.8388 10.2669 59.8388 10.7336V10.8269C60.214 10.4536 60.5891 10.0802 61.1519 9.80023C61.8084 9.4269 62.3712 9.24023 62.934 9.24023C63.7781 9.24023 64.5285 9.61357 64.9974 10.2669C65.0912 10.4536 65.2788 10.7336 65.3726 10.9202C66.4981 9.80023 67.5298 9.24023 68.6553 9.24023C69.4057 9.24023 70.0622 9.52023 70.5312 9.9869C71.0002 10.5469 71.2816 11.2002 71.2816 11.9469V19.6936H69.5933V12.0402C69.5933 11.0136 69.1243 10.5469 68.2802 10.5469C67.8112 10.5469 67.2484 10.7336 66.7795 11.1069C66.5919 11.2936 66.2167 11.5736 65.7478 11.9469L65.5602 12.1336V19.6936H63.7781V12.4136C63.7781 11.7602 63.6843 11.2936 63.4967 11.1069C63.2153 10.8269 62.934 10.7336 62.465 10.7336C61.7147 10.7336 60.8705 11.2002 59.8388 12.1336V19.7869H58.2443V12.1336Z" fill="#F26625"/>
<path d="M74.1895 5.04033L75.8777 4.66699C76.0653 5.41366 76.1591 6.25366 76.1591 7.28033V9.61366C76.1591 10.1737 76.1591 10.547 76.1591 10.7337C77.097 9.80033 78.1288 9.33366 79.1605 9.33366C80.3798 9.33366 81.4115 9.80033 82.0681 10.7337C82.8184 11.667 83.1936 12.9737 83.1936 14.5603C83.1936 16.2403 82.8184 17.547 82.0681 18.5737C81.3177 19.6003 80.286 20.067 79.0667 20.067C78.5039 20.067 78.035 19.9737 77.4722 19.6937C76.9095 19.4137 76.5343 19.1337 76.2529 18.7603C76.1591 19.227 76.0653 19.6003 75.9715 19.8803H74.377C74.5646 19.4137 74.6584 18.5737 74.6584 17.267V7.46699C74.5646 6.34699 74.4708 5.50699 74.1895 5.04033ZM76.9095 11.387C76.6281 11.5737 76.3467 11.8537 76.1591 12.1337V17.4537C76.8157 18.2937 77.6598 18.667 78.6915 18.667C79.5357 18.667 80.1922 18.387 80.5674 17.7337C81.0364 16.987 81.3177 15.9603 81.3177 14.467C81.3177 13.1603 81.1301 12.227 80.6612 11.667C80.286 11.107 79.6295 10.827 78.6915 10.827C78.1288 10.7337 77.4722 10.9203 76.9095 11.387Z" fill="#F26625"/>
<path d="M85.6328 6.34671C85.6328 5.97337 85.7266 5.69337 86.008 5.41337C86.2894 5.13337 86.5707 5.04004 86.9459 5.04004C87.3211 5.04004 87.6025 5.13337 87.8838 5.41337C88.1652 5.69337 88.259 5.97337 88.259 6.34671C88.259 6.72004 88.1652 7.00004 87.8838 7.28004C87.6025 7.56004 87.3211 7.65337 86.9459 7.65337C86.5707 7.65337 86.2894 7.56004 86.008 7.28004C85.7266 7.00004 85.6328 6.72004 85.6328 6.34671ZM86.008 19.7867V9.52004L87.6963 9.24004V19.7867H86.008Z" fill="#F26625"/>
<path d="M91.3537 12.1336C91.3537 11.3869 91.3537 10.9202 91.2599 10.7336C91.2599 10.4536 91.0724 10.1736 90.8848 9.7069L92.4792 9.24023C92.7606 9.80023 92.8544 10.2669 92.8544 10.8269C93.8861 9.80024 95.0117 9.24023 96.1372 9.24023C96.6999 9.24023 97.1689 9.33357 97.6379 9.61357C98.1068 9.89357 98.482 10.2669 98.6696 10.7336C98.8572 11.1069 98.951 11.4802 98.951 11.9469V19.7869H97.3565V12.7869C97.3565 11.9469 97.2627 11.3869 96.9813 11.1069C96.6999 10.8269 96.3248 10.6402 95.8558 10.6402C95.4806 10.6402 94.9179 10.8269 94.3551 11.1069C93.7923 11.3869 93.3234 11.7602 92.9482 12.1336V19.7869H91.3537V12.1336Z" fill="#F26625"/>
<path d="M102.704 11.7602L101.86 10.6402C103.266 9.7069 104.673 9.24023 106.174 9.24023C107.675 9.24023 108.613 9.80024 109.082 10.8269C109.269 11.2002 109.269 11.7602 109.269 12.6002V13.1602L109.175 16.5202C109.175 16.6136 109.175 16.8002 109.175 16.9869C109.175 17.5469 109.175 17.9202 109.269 18.2002C109.363 18.5736 109.644 18.8536 110.02 19.0402L109.175 20.1602C108.425 19.8802 107.956 19.4136 107.769 18.6669C106.831 19.6002 105.799 20.0669 104.767 20.0669C103.735 20.0669 102.891 19.7869 102.235 19.2269C101.672 18.7602 101.391 18.0136 101.391 17.0802C101.391 15.8669 101.86 15.0269 102.798 14.3736C103.735 13.7202 105.142 13.4402 106.831 13.4402C107.112 13.4402 107.3 13.4402 107.581 13.4402V12.6936C107.581 11.8536 107.487 11.2936 107.206 11.1069C106.831 10.7336 106.455 10.5469 105.799 10.5469C105.236 10.5469 104.58 10.7336 103.829 11.0136C103.548 11.2002 103.173 11.4802 102.704 11.7602ZM107.675 17.2669L107.769 14.5602C107.3 14.5602 107.018 14.5602 106.924 14.5602C105.424 14.5602 104.486 14.8402 103.923 15.4002C103.548 15.7736 103.36 16.3336 103.36 17.0802C103.36 18.2936 103.923 18.9469 105.142 18.9469C106.268 18.8536 107.112 18.2936 107.675 17.2669Z" fill="#F26625"/>
<path d="M114.615 9.51987H117.241L116.772 10.8265H114.615V17.4532C114.615 18.0132 114.708 18.3865 114.896 18.6665C115.084 18.8532 115.459 19.0399 115.928 19.0399C116.303 19.0399 116.678 18.9465 116.959 18.8532L117.147 19.8799C116.584 20.1599 116.022 20.2532 115.365 20.2532C113.771 20.2532 113.02 19.5065 113.02 17.9199V10.8265H111.613V9.51987H112.926V9.3332C112.926 9.14654 113.02 8.39987 113.114 7.18654V6.90654L114.802 6.5332C114.615 7.6532 114.615 8.67987 114.615 9.51987Z" fill="#F26625"/>
<path d="M118.93 14.6536C118.93 12.9736 119.305 11.6669 120.149 10.7336C120.899 9.80023 122.025 9.24023 123.338 9.24023C124.839 9.24023 126.058 9.80023 126.902 11.0136C127.559 11.9469 127.84 13.2536 127.84 14.8402C127.84 16.7069 127.277 18.2002 126.246 19.1336C125.495 19.7869 124.557 20.1602 123.432 20.1602C122.025 20.1602 120.993 19.6936 120.149 18.6669C119.399 17.7336 118.93 16.3336 118.93 14.6536ZM125.589 11.9469C125.12 11.1069 124.463 10.6402 123.432 10.6402C122.4 10.6402 121.743 11.0136 121.275 11.7602C120.899 12.3202 120.806 13.2536 120.806 14.4669C120.806 16.0536 120.993 17.1736 121.462 17.8269C121.931 18.4802 122.588 18.8536 123.526 18.8536C124.651 18.8536 125.401 18.2936 125.777 17.2669C125.964 16.7069 126.058 15.9602 126.058 15.0269C126.058 13.6269 125.87 12.6002 125.589 11.9469Z" fill="#F26625"/>
<path d="M130.934 11.9469C130.934 11.0136 130.84 10.2669 130.559 9.7069L132.153 9.24023C132.434 9.80023 132.528 10.2669 132.528 10.8269V11.0136C133.372 9.89357 134.31 9.33357 135.436 9.33357C135.623 9.33357 135.811 9.33357 135.999 9.4269L135.342 11.2002C135.154 11.1069 134.967 11.1069 134.873 11.1069C134.498 11.1069 134.029 11.2002 133.654 11.4802C133.279 11.7602 132.903 12.0402 132.716 12.4136C132.622 12.6936 132.528 13.0669 132.528 13.5336V19.9736H130.934V11.9469Z" fill="#F26625"/>
</g>
<defs>
<clipPath id="clip0_376_25">
<rect width="136" height="28" fill="white"/>
</clipPath>
</defs>
</svg>
