<svg width="72" height="40" viewBox="0 0 72 40" fill="none" xmlns="http://www.w3.org/2000/svg">
<path d="M13.5129 32.2918C11.1435 32.0198 8.75249 30.7125 7.24889 28.8666C5.98469 27.3146 5.29709 25.6648 5.09789 23.7039C4.98089 22.5561 5.08709 21.551 5.46509 20.239C5.79689 19.087 6.35969 17.9889 7.13249 16.9863C7.26929 16.8097 8.51909 15.5854 8.73269 15.4195C10.9095 13.7294 13.9275 13.0497 16.6821 13.6292C17.7759 13.8598 18.8829 14.3095 19.8303 14.9081C20.0091 15.0207 20.1837 15.1131 20.2179 15.1131C20.2575 15.1131 20.2809 14.9033 20.2809 14.5501V13.9872H22.2909H24.3015L24.2859 22.9501L24.2709 31.9131L22.2759 31.9285L20.2809 31.9445V31.2915C20.2809 30.9193 20.2563 30.639 20.2239 30.639C20.1927 30.639 20.0499 30.7172 19.9071 30.8121C19.1577 31.3116 17.9091 31.8609 17.0691 32.0595C15.9165 32.3326 14.6115 32.418 13.5129 32.2918ZM15.9609 28.2752C17.0991 27.9884 17.7603 27.6156 18.6015 26.7872C19.1187 26.2781 19.2921 26.0601 19.5537 25.5872C19.7295 25.2689 19.9377 24.8109 20.0157 24.5685C20.8683 21.9155 19.6035 19.0698 17.0409 17.8764C16.3677 17.5629 15.8961 17.4343 15.1893 17.3721C14.0991 17.2761 13.1259 17.4621 12.1449 17.954C9.14849 19.4562 8.13869 23.1866 9.98249 25.9404C10.5435 26.7777 11.5575 27.6198 12.4521 27.9907C12.7581 28.1169 13.4505 28.3001 14.0409 28.4103C14.3493 28.4678 15.5247 28.3854 15.9609 28.2752ZM40.7787 32.2924C38.4693 31.9593 36.2955 30.7534 34.8651 29.0118C34.3779 28.418 34.2015 28.1472 33.8217 27.4094C33.1161 26.0405 32.8179 24.7409 32.8479 23.1724C32.8755 21.7525 33.1359 20.6924 33.7869 19.3484C34.2837 18.3238 34.0803 18.6041 40.3941 10.2687L42.4251 7.58713H44.7933C46.0953 7.58713 47.1609 7.60135 47.1609 7.61913C47.1609 7.65765 46.7847 8.14357 44.8209 10.642C43.9791 11.7122 43.0881 12.8464 42.8409 13.1623C42.5937 13.4781 42.3009 13.8461 42.1911 13.9807C42.0507 14.1513 42.0147 14.2319 42.0711 14.2497C42.1149 14.2633 42.5427 14.2888 43.0209 14.3054C47.2095 14.4524 50.7495 17.6405 51.4527 21.8983C51.5559 22.5252 51.5685 23.9469 51.4761 24.5537C51.0453 27.3756 49.4277 29.7264 46.9449 31.1386C45.9963 31.6778 44.6361 32.1312 43.4709 32.2959C42.9717 32.3664 41.2773 32.3641 40.7787 32.2924ZM42.7719 28.7404C43.6275 28.6343 44.4525 28.3338 45.1185 27.8858C45.5421 27.6002 45.6153 27.5421 45.8703 27.2897C47.2755 25.8995 47.8065 23.9593 47.3349 21.9386C47.2719 21.6672 47.1663 21.3288 47.1003 21.186C47.0349 21.0438 46.9809 20.9027 46.9809 20.8725C46.9809 20.8429 46.7871 20.5318 46.5507 20.1815C45.3663 18.4263 43.3395 17.5836 41.1903 17.9534C38.5983 18.399 36.7725 20.8144 36.9231 23.5978C36.9765 24.5815 37.2123 25.3916 37.6935 26.2497C38.0709 26.9211 38.8095 27.6701 39.4419 28.0221C39.5787 28.098 39.7455 28.1952 39.8127 28.2372C40.0305 28.3741 41.0007 28.6764 41.4009 28.7326C41.9487 28.8097 42.2019 28.8109 42.7719 28.7404ZM26.9409 21.5724V11.202H25.6575C24.6837 11.202 24.3675 11.1842 24.3489 11.1279C24.3351 11.087 24.3255 10.2805 24.3279 9.33528L24.3321 7.61676L27.6465 7.60135L30.9609 7.58594V19.7644V31.9427H28.9509H26.9409V21.5724ZM53.0811 31.9036C53.0589 31.8817 53.0409 31.0716 53.0409 30.1039V28.3439L53.7333 27.5214C55.3911 25.5522 56.1009 24.7066 57.3621 23.202C58.0995 22.322 58.9497 21.3086 59.2521 20.9501C59.5539 20.5916 60.0687 19.9771 60.3957 19.5842C60.7233 19.1913 61.2039 18.6183 61.4637 18.3101L61.9365 17.7501L57.5037 17.7205L53.0709 17.6909V15.9131V14.1353L59.9559 14.1205L66.8409 14.1051V15.9149V17.7241L64.6101 20.3741C63.3825 21.8319 61.5825 23.9712 60.6099 25.1279C59.6367 26.2846 58.6425 27.4627 58.4007 27.7454C58.1589 28.0275 57.9609 28.2746 57.9609 28.2935C57.9609 28.3125 59.9727 28.3279 62.4315 28.3279H66.9027L66.8865 30.1205L66.8709 31.9131L59.9961 31.9279C56.2149 31.9362 53.1033 31.9255 53.0811 31.9036Z" fill="white"/>
</svg>
