<svg width="24" height="24" viewBox="0 0 24 24" fill="none" xmlns="http://www.w3.org/2000/svg">
<path d="M10 13.0039C10.4295 13.578 10.9774 14.0531 11.6066 14.3968C12.2357 14.7406 12.9315 14.945 13.6467 14.9962C14.3618 15.0474 15.0796 14.9442 15.7513 14.6937C16.4231 14.4431 17.0331 14.0509 17.54 13.5439L20.54 10.5439C21.4508 9.60086 21.9548 8.33785 21.9434 7.02687C21.932 5.71588 21.4061 4.46182 20.4791 3.53478C19.5521 2.60774 18.298 2.08189 16.987 2.0705C15.676 2.05911 14.413 2.56308 13.47 3.47387L11.75 5.18387" stroke="white" stroke-width="2" stroke-linecap="round" stroke-linejoin="round"/>
<path d="M14.0002 10.9973C13.5707 10.4232 13.0228 9.94811 12.3936 9.60436C11.7645 9.2606 11.0687 9.05618 10.3535 9.00496C9.63841 8.95374 8.92061 9.05693 8.24885 9.30751C7.5771 9.5581 6.96709 9.95023 6.4602 10.4573L3.4602 13.4573C2.54941 14.4003 2.04544 15.6633 2.05683 16.9743C2.06822 18.2853 2.59407 19.5393 3.52111 20.4664C4.44815 21.3934 5.70221 21.9193 7.01319 21.9307C8.32418 21.9421 9.58719 21.4381 10.5302 20.5273L12.2402 18.8173" stroke="white" stroke-width="2" stroke-linecap="round" stroke-linejoin="round"/>
</svg>
