<svg width="18" height="22" viewBox="0 0 18 22" fill="none" xmlns="http://www.w3.org/2000/svg">
<path d="M3 21C2.46957 21 1.96086 20.7893 1.58579 20.4142C1.21071 20.0391 1 19.5304 1 19V3C1 2.46957 1.21071 1.96086 1.58579 1.58579C1.96086 1.21072 2.46957 1 3 1H11C11.3166 0.99949 11.6301 1.06161 11.9225 1.18277C12.215 1.30394 12.4806 1.48176 12.704 1.706L16.292 5.294C16.5168 5.51751 16.6952 5.78335 16.8167 6.07616C16.9382 6.36898 17.0005 6.68297 17 7V19C17 19.5304 16.7893 20.0391 16.4142 20.4142C16.0391 20.7893 15.5304 21 15 21H3Z" fill="white" fill-opacity="0.4" stroke="white" stroke-width="2" stroke-linecap="round" stroke-linejoin="round"/>
</svg>
