<svg width="16" height="16" viewBox="0 0 16 16" fill="none" xmlns="http://www.w3.org/2000/svg">
<path d="M3.33333 6.51827V10.8C3.33333 11.9201 3.33333 12.4802 3.55132 12.908C3.74307 13.2843 4.04903 13.5902 4.42535 13.782C4.85317 14 5.41323 14 6.53333 14H9.46667C10.5868 14 11.1468 14 11.5747 13.782C11.951 13.5902 12.2569 13.2843 12.4487 12.908C12.6667 12.4802 12.6667 11.9201 12.6667 10.8V3.33331M14 7.99996L10.3779 3.97595C9.55407 3.06077 9.1422 2.60319 8.65707 2.43425C8.23107 2.28588 7.76733 2.28591 7.34127 2.43435C6.8562 2.60335 6.44441 3.06101 5.62076 3.97631L2 7.99996" fill="#E5E6EC"/>
<path d="M3.33333 6.51827V10.8C3.33333 11.9201 3.33333 12.4802 3.55132 12.908C3.74307 13.2843 4.04903 13.5902 4.42535 13.782C4.85317 14 5.41323 14 6.53333 14H9.46667C10.5868 14 11.1468 14 11.5747 13.782C11.951 13.5902 12.2569 13.2843 12.4487 12.908C12.6667 12.4802 12.6667 11.9201 12.6667 10.8V3.33331M14 7.99996L10.3779 3.97595C9.55407 3.06077 9.1422 2.60319 8.65707 2.43425C8.23107 2.28588 7.76733 2.28591 7.34127 2.43435C6.8562 2.60335 6.44441 3.06101 5.62076 3.97631L2 7.99996" stroke="#1F2937" stroke-width="1.4" stroke-linecap="round" stroke-linejoin="round"/>
</svg>
