<svg width="16" height="16" viewBox="0 0 16 16" fill="none" xmlns="http://www.w3.org/2000/svg">
<path d="M8.00065 8.0026C7.22148 8.0026 6.55447 7.72517 5.99961 7.17031C5.44475 6.61545 5.16732 5.94844 5.16732 5.16927C5.16732 4.3901 5.44475 3.72309 5.99961 3.16823C6.55447 2.61337 7.22148 2.33594 8.00065 2.33594C8.77982 2.33594 9.44683 2.61337 10.0017 3.16823C10.5566 3.72309 10.834 4.3901 10.834 5.16927C10.834 5.94844 10.5566 6.61545 10.0017 7.17031C9.44683 7.72517 8.77982 8.0026 8.00065 8.0026ZM2.33398 13.6693V11.6859C2.33398 11.2845 2.43728 10.9156 2.64388 10.5792C2.85048 10.2427 3.12496 9.98594 3.46732 9.80885C4.19926 9.44288 4.94301 9.1684 5.69857 8.98542C6.45412 8.80243 7.22148 8.71094 8.00065 8.71094C8.77982 8.71094 9.54718 8.80243 10.3027 8.98542C11.0583 9.1684 11.802 9.44288 12.534 9.80885C12.8763 9.98594 13.1508 10.2427 13.3574 10.5792C13.564 10.9156 13.6673 11.2845 13.6673 11.6859V13.6693H2.33398ZM3.75065 12.2526H12.2507V11.6859C12.2507 11.5561 12.2182 11.438 12.1533 11.3318C12.0883 11.2255 12.0027 11.1429 11.8965 11.0839C11.259 10.7651 10.6156 10.526 9.96628 10.3667C9.31697 10.2073 8.66176 10.1276 8.00065 10.1276C7.33954 10.1276 6.68433 10.2073 6.03503 10.3667C5.38572 10.526 4.74232 10.7651 4.10482 11.0839C3.99857 11.1429 3.91298 11.2255 3.84805 11.3318C3.78312 11.438 3.75065 11.5561 3.75065 11.6859V12.2526ZM8.00065 6.58594C8.39023 6.58594 8.72374 6.44722 9.00117 6.16979C9.2786 5.89236 9.41732 5.55885 9.41732 5.16927C9.41732 4.77969 9.2786 4.44618 9.00117 4.16875C8.72374 3.89132 8.39023 3.7526 8.00065 3.7526C7.61107 3.7526 7.27756 3.89132 7.00013 4.16875C6.7227 4.44618 6.58398 4.77969 6.58398 5.16927C6.58398 5.55885 6.7227 5.89236 7.00013 6.16979C7.27756 6.44722 7.61107 6.58594 8.00065 6.58594Z" fill="white"/>
</svg>
