<svg width="16" height="16" viewBox="0 0 16 16" fill="none" xmlns="http://www.w3.org/2000/svg">
<path d="M10.7345 11.9534L8.93698 13.6899C8.62498 14.0024 8.19498 14.1324 7.72098 14.1324C7.24698 14.1324 6.81748 14.0024 6.50498 13.6899L3.61698 10.7839C3.30698 10.4714 3.14848 10.0154 3.14848 9.54142C3.14848 9.06542 3.30698 8.63542 3.61698 8.32542L6.49698 5.40342C6.80698 5.09392 7.24698 4.97392 7.72098 4.97392C8.19498 4.97392 8.62498 5.10392 8.93698 5.41642L10.7345 7.15292C11.078 7.49692 11.646 7.48442 12.0025 7.12692C12.3565 6.77042 12.37 6.20292 12.026 5.85892L10.2895 4.10342C9.83898 3.65792 9.27348 3.35092 8.65898 3.20992L10.3025 1.54342C10.6465 1.19992 10.636 0.631922 10.279 0.275422C9.92198 -0.0810779 9.35448 -0.0920779 9.01098 0.249422L2.27648 6.98392C1.62298 7.63992 1.28198 8.54042 1.28198 9.54042C1.28198 10.5384 1.62348 11.4704 2.27648 12.1244L5.17498 15.0304C5.82848 15.6839 6.73248 15.9989 7.73248 15.9989C8.72998 15.9989 9.63298 15.6574 10.287 15.0044L12.0265 13.2439C12.3705 12.9024 12.357 12.3354 12.0005 11.9784C11.644 11.6214 11.076 11.6084 10.735 11.9524L10.7345 11.9534ZM13.8745 8.67442H7.10898C6.64298 8.67442 6.26298 9.07492 6.26298 9.56992C6.26298 10.0654 6.64298 10.4684 7.10898 10.4684H13.8745C14.341 10.4684 14.721 10.0649 14.721 9.56992C14.721 9.07542 14.341 8.67442 13.8745 8.67442Z" fill="#1F2937"/>
</svg>
