<svg width="6963" height="3000" viewBox="0 0 6963 3000" fill="none" xmlns="http://www.w3.org/2000/svg">
<g clip-path="url(#clip0_783_159)">
<path d="M2821.41 1032.13H3009.49L3329.29 1610.62L3649.08 1032.13H3833.09V1982.7H3679.64V1254.16L3399.22 1758.64H3255.28L2974.86 1254.16V1982.7H2821.41V1032.13Z" fill="white"/>
<path d="M4328.04 1999.68C4256.97 1999.68 4194.51 1983.95 4140.65 1952.49C4086.78 1921.03 4044.79 1877.46 4014.7 1821.79C3984.59 1766.11 3969.54 1702.28 3969.55 1630.32C3969.55 1557.44 3984.26 1492.94 4013.68 1436.81C4043.1 1380.69 4083.95 1336.78 4136.23 1305.08C4188.52 1273.41 4248.61 1257.56 4316.5 1257.55C4383.94 1257.55 4442 1273.51 4490.66 1305.42C4539.31 1337.34 4576.77 1382.04 4603.03 1439.52C4629.28 1497.01 4642.4 1564.46 4642.41 1641.86V1683.95H4121.64C4131.14 1741.9 4154.57 1787.5 4191.91 1820.76C4229.26 1854.04 4276.44 1870.67 4333.48 1870.67C4379.19 1870.67 4418.57 1863.88 4451.62 1850.3C4484.65 1836.72 4515.66 1816.12 4544.64 1788.51L4626.11 1888.32C4545.08 1962.57 4445.72 1999.68 4328.04 1999.68ZM4440.08 1435.78C4407.93 1402.97 4365.84 1386.56 4313.79 1386.56C4263.09 1386.56 4220.65 1403.31 4186.48 1436.81C4152.3 1470.3 4130.68 1515.34 4121.64 1571.92H4495.07C4490.54 1513.98 4472.21 1468.6 4440.08 1435.78Z" fill="white"/>
<path d="M4828.46 1400.14H4687.23V1274.53H4828.46V1066.77H4976.48V1274.53H5191.03V1400.14H4976.48V1718.58C4976.48 1771.53 4985.53 1809.33 5003.64 1831.96C5021.73 1854.6 5052.74 1865.92 5096.66 1865.91C5116.11 1865.91 5132.63 1865.12 5146.22 1863.54C5159.8 1861.96 5174.74 1859.81 5191.03 1857.08V1981.34C5172.44 1986.71 5153.49 1990.8 5134.34 1993.56C5112.42 1996.79 5090.29 1998.38 5068.14 1998.31C4908.35 1998.31 4828.46 1910.95 4828.46 1736.23V1400.14Z" fill="white"/>
<path d="M5962.36 1982.7H5817.06V1883.57C5791.26 1920.69 5758.45 1949.32 5718.61 1969.46C5678.78 1989.59 5633.51 1999.67 5582.82 1999.68C5520.35 1999.68 5465.02 1983.72 5416.81 1951.8C5368.6 1919.89 5330.69 1875.99 5303.08 1820.09C5275.47 1764.18 5261.66 1700.25 5261.66 1628.28C5261.66 1555.86 5275.7 1491.8 5303.76 1436.12C5331.82 1380.45 5370.64 1336.77 5420.2 1305.08C5469.77 1273.41 5526.69 1257.56 5590.96 1257.55C5639.4 1257.55 5682.85 1266.95 5721.33 1285.74C5759.29 1304.1 5792.16 1331.49 5817.06 1365.51V1274.53H5962.36V1982.7ZM5814.35 1522.36C5798.5 1482.07 5773.49 1450.27 5739.32 1426.96C5705.14 1403.65 5665.65 1391.99 5620.84 1391.99C5557.46 1391.99 5506.99 1413.27 5469.43 1455.81C5431.85 1498.36 5413.07 1555.85 5413.08 1628.28C5413.08 1701.16 5431.18 1758.87 5467.39 1801.42C5503.6 1843.97 5552.71 1865.24 5614.73 1865.24C5660.44 1865.24 5701.18 1853.47 5736.95 1829.93C5772.7 1806.4 5798.5 1774.72 5814.35 1734.87V1522.36Z" fill="white"/>
<path d="M2080 1000C1956.61 1000 1860.15 1092.94 1772.84 1210.99C1652.85 1058.22 1552.5 1000 1432.41 1000C1187.59 1000 1000 1318.62 1000 1655.86C1000 1866.9 1102.1 2000 1273.1 2000C1396.18 2000 1484.7 1941.97 1642.07 1666.9C1642.07 1666.9 1707.67 1551.06 1752.79 1471.26C1768.61 1496.79 1785.26 1524.3 1802.76 1553.79L1876.55 1677.93C2020.3 1918.48 2100.39 2000 2245.52 2000C2412.11 2000 2504.83 1865.08 2504.83 1649.66C2504.83 1296.55 2313.01 1000 2080 1000ZM1522.07 1592.41C1394.48 1792.41 1350.34 1837.24 1279.31 1837.24C1206.21 1837.24 1162.76 1773.06 1162.76 1658.62C1162.76 1413.79 1284.83 1163.45 1430.34 1163.45C1509.15 1163.45 1575 1208.96 1675.87 1353.36C1580.09 1500.27 1522.07 1592.41 1522.07 1592.41ZM2003.6 1567.24L1915.37 1420.09C1891.49 1381.26 1868.54 1345.51 1846.53 1312.86C1926.05 1190.12 1991.64 1128.97 2069.66 1128.97C2231.72 1128.97 2361.38 1367.59 2361.38 1660.69C2361.38 1772.41 2324.79 1837.24 2248.97 1837.24C2176.29 1837.24 2141.58 1789.25 2003.6 1567.24Z" fill="white"/>
</g>
<defs>
<clipPath id="clip0_783_159">
<rect width="6962.36" height="3000" fill="white"/>
</clipPath>
</defs>
</svg>
